<?xml version="1.0" standalone="no"?>
<!DOCTYPE svg PUBLIC "-//W3C//DTD SVG 20010904//EN"
 "http://www.w3.org/TR/2001/REC-SVG-20010904/DTD/svg10.dtd">
<svg version="1.0" xmlns="http://www.w3.org/2000/svg"
 width="3402.000000pt" height="3402.000000pt" viewBox="0 0 3402.000000 3402.000000"
 preserveAspectRatio="xMidYMid meet">

<g transform="translate(0.000000,3402.000000) scale(0.100000,-0.100000)"
fill="#000000" stroke="none">
<path d="M16005 22343 c-10 -58 -72 -200 -122 -283 -222 -367 -609 -604 -1128
-690 -433 -72 -921 -38 -1287 88 -331 115 -597 324 -727 572 l-37 70 -331
-333 -332 -333 10 -42 c18 -82 114 -254 295 -527 138 -209 234 -417 338 -732
214 -654 359 -1588 383 -2468 9 -359 -22 -579 -110 -782 -137 -317 -408 -517
-748 -551 l-74 -7 -17 -74 c-92 -395 -9 -896 227 -1386 254 -524 574 -867
1060 -1134 325 -178 818 -332 1175 -367 41 -4 83 -10 93 -13 11 -4 38 -58 76
-151 122 -306 267 -591 432 -851 445 -705 1088 -1300 1762 -1630 151 -74 120
-78 362 41 719 353 1403 1100 1941 2120 56 107 131 259 166 337 l63 141 100 7
c535 34 982 209 1470 575 278 208 504 427 618 598 242 362 377 878 377 1443
l0 166 -47 18 c-402 151 -655 508 -762 1075 -49 262 -56 366 -56 880 0 498 18
891 51 1153 66 532 313 1140 709 1747 84 129 241 349 293 410 l30 35 -301 305
c-166 168 -304 306 -307 307 -3 2 -13 -16 -22 -40 -72 -173 -269 -364 -499
-482 -181 -93 -371 -152 -614 -191 -136 -21 -567 -30 -706 -14 -462 53 -840
231 -1141 537 -123 125 -222 258 -290 389 l-53 104 -1156 0 -1157 0 -7 -37z
m-105 -1386 c296 -79 536 -276 660 -540 63 -134 84 -235 83 -407 0 -100 -5
-170 -17 -225 -63 -285 -196 -539 -389 -742 -65 -69 -66 -68 26 -77 74 -8 159
-38 203 -71 85 -65 102 -188 47 -328 -17 -42 -28 -79 -24 -81 3 -2 40 -18 82
-35 123 -51 159 -106 163 -245 1 -45 6 -88 11 -96 30 -51 328 -470 333 -469 4
0 82 109 175 242 l167 241 0 74 c0 146 42 209 170 257 41 15 77 29 79 31 2 2
-9 34 -25 71 -25 58 -29 81 -29 159 0 83 2 94 28 131 44 64 177 123 277 123
20 0 40 3 44 7 3 4 -16 30 -43 57 -130 134 -273 369 -340 559 -95 271 -98 549
-9 781 79 205 264 400 484 509 164 82 321 112 548 105 222 -8 442 -63 706
-177 51 -23 99 -41 105 -41 7 0 34 9 60 21 112 50 227 -30 210 -146 -9 -60 8
-92 116 -210 205 -225 308 -408 373 -659 164 -629 -186 -1169 -831 -1281 -112
-20 -325 -19 -444 1 -109 18 -300 79 -389 124 l-62 32 5 -34 c18 -97 19 -205
4 -259 -32 -110 -114 -158 -286 -168 l-94 -6 -2 -81 c-3 -139 -53 -207 -176
-239 -29 -8 -60 -22 -70 -32 -9 -10 -115 -157 -234 -327 l-216 -308 17 -27
c36 -54 644 -926 847 -1214 116 -164 215 -296 221 -294 6 3 158 107 336 233
179 125 341 232 362 238 26 7 48 6 77 -3 36 -10 50 -25 119 -122 42 -61 77
-114 77 -119 0 -5 -133 -102 -295 -215 -162 -114 -303 -216 -312 -227 -28 -32
-22 -58 38 -143 62 -89 88 -115 114 -115 10 0 156 97 326 215 169 119 312 214
318 212 11 -4 246 -336 245 -346 0 -3 -136 -100 -302 -216 -179 -125 -307
-221 -317 -237 -13 -25 -13 -30 3 -61 10 -19 42 -65 70 -103 42 -55 58 -70 82
-72 26 -2 80 31 339 213 170 119 312 212 316 208 33 -36 136 -195 147 -226 20
-57 3 -107 -50 -150 -23 -19 -170 -123 -327 -232 -157 -109 -293 -205 -302
-213 -16 -13 -15 -17 13 -59 110 -160 111 -298 3 -393 -60 -52 -118 -73 -181
-67 -107 11 -178 75 -320 288 -101 152 -1938 2777 -1957 2797 -10 10 -203
-260 -957 -1335 -519 -741 -979 -1402 -1023 -1468 -189 -286 -321 -348 -482
-226 -122 93 -126 225 -12 404 17 26 29 49 27 51 -2 2 -154 108 -337 236 -219
153 -338 242 -347 261 -8 15 -15 48 -15 72 0 38 9 57 76 153 42 60 78 110 79
112 2 2 142 -94 311 -212 210 -147 316 -216 334 -216 30 0 56 26 123 121 54
77 58 105 20 141 -16 14 -152 112 -303 218 -151 105 -280 197 -287 204 -9 8
16 51 107 181 66 93 124 171 129 173 5 2 146 -92 312 -209 166 -116 311 -214
321 -217 29 -7 62 22 122 110 61 91 68 123 34 155 -13 11 -144 105 -293 208
-148 104 -280 196 -292 206 l-22 16 77 112 c80 116 111 141 172 141 17 0 41
-5 53 -11 12 -7 170 -116 351 -242 l329 -230 20 24 c53 65 1057 1504 1057
1514 0 9 -410 595 -441 630 -19 21 -43 34 -80 43 -29 6 -69 25 -89 41 -58 47
-74 85 -80 186 l-5 90 -100 6 c-197 12 -277 79 -291 242 -3 34 1 97 8 140 8
42 13 77 11 77 -2 0 -34 -15 -71 -34 -85 -43 -223 -90 -332 -113 -67 -14 -128
-18 -285 -17 -182 0 -209 3 -296 26 -319 86 -553 266 -683 525 -62 125 -87
229 -93 390 -7 164 9 277 62 439 71 216 177 389 356 579 96 101 109 127 109
210 0 82 14 104 84 136 53 24 70 24 133 -3 l52 -21 108 45 c326 138 511 179
783 174 149 -3 189 -7 270 -29z"/>
<path d="M15301 20525 c-145 -32 -299 -97 -305 -129 -2 -12 -9 -50 -15 -85
-17 -106 -63 -132 -191 -112 -77 13 -80 10 -172 -113 -121 -162 -188 -346
-189 -516 -1 -179 54 -313 181 -440 156 -157 381 -224 625 -186 242 37 457
148 641 331 228 228 323 492 269 750 -38 183 -178 362 -346 443 -46 23 -113
48 -149 56 -81 19 -262 19 -349 1z"/>
<path d="M18540 20534 c-14 -3 -60 -16 -102 -30 -293 -96 -481 -396 -440 -704
35 -258 205 -506 468 -679 191 -126 369 -183 574 -183 220 -1 365 56 505 196
98 98 146 188 171 320 29 147 0 305 -87 480 -42 85 -117 192 -171 243 l-33 32
-75 -11 c-131 -19 -170 13 -186 151 l-7 64 -72 33 c-137 63 -235 86 -385 89
-74 2 -146 1 -160 -1z"/>
<path d="M22320 7139 c0 -12 8 -28 18 -35 16 -12 14 -22 -34 -161 -47 -137
-53 -149 -83 -162 -23 -11 -31 -21 -29 -35 3 -20 9 -21 148 -21 141 0 145 1
148 22 2 14 -3 23 -17 28 -12 3 -21 11 -21 16 0 6 48 78 106 160 86 122 112
151 135 156 22 4 29 11 29 29 l0 24 -200 0 c-198 0 -200 0 -200 -21z"/>
<path d="M18135 6935 c-124 -20 -202 -43 -302 -90 -111 -52 -164 -88 -249
-167 -90 -84 -149 -166 -205 -283 -85 -179 -120 -392 -99 -612 25 -277 107
-469 274 -642 199 -206 432 -296 766 -295 292 1 577 89 888 276 66 40 82 54
82 73 0 16 -9 28 -27 37 -49 23 -53 44 -53 295 0 129 4 243 10 258 5 14 23 34
40 43 22 12 30 24 30 45 l0 27 -433 0 c-475 0 -469 -1 -482 60 -5 25 -11 30
-36 30 l-29 0 2 -237 c3 -238 3 -238 25 -241 18 -3 26 5 39 38 10 26 26 45 41
51 13 5 125 9 249 9 l224 0 0 -135 0 -135 -32 -20 c-117 -72 -316 -120 -499
-120 -216 0 -362 54 -490 182 -80 80 -151 211 -174 323 -20 94 -19 287 1 378
54 245 230 432 464 494 102 27 279 22 404 -11 197 -53 327 -135 341 -217 4
-24 14 -43 27 -50 11 -6 21 -9 22 -7 2 2 49 111 105 242 90 213 100 241 87
254 -13 14 -20 13 -56 -3 l-41 -18 -82 32 c-182 73 -337 121 -432 136 -119 18
-289 18 -400 0z"/>
<path d="M3180 6882 c0 -22 7 -30 30 -39 17 -6 34 -23 40 -38 15 -39 14 -1786
-1 -1819 -7 -13 -25 -30 -40 -37 -23 -9 -29 -18 -29 -40 l0 -29 280 0 280 0 0
23 c0 16 -12 31 -37 48 -32 20 -39 32 -46 72 -10 62 -4 1767 6 1789 5 9 24 24
43 33 25 12 34 22 34 40 l0 25 -280 0 -280 0 0 -28z"/>
<path d="M7530 6390 c0 -239 1 -250 19 -250 12 0 21 9 25 26 4 14 18 37 31 50
24 24 25 24 250 24 l225 0 0 -626 c0 -381 -4 -632 -10 -643 -5 -10 -23 -24
-40 -31 -21 -9 -30 -19 -30 -36 l0 -24 260 0 260 0 0 25 c0 17 -9 29 -30 40
-17 9 -35 27 -40 41 -6 15 -10 273 -10 640 l0 614 226 0 c126 0 233 -4 243
-10 10 -5 26 -28 35 -50 12 -30 21 -40 34 -38 15 3 17 25 20 251 l2 247 -24 0
c-19 0 -26 -7 -31 -30 -14 -62 13 -60 -685 -60 l-637 0 -20 23 c-11 12 -24 32
-28 45 -4 13 -14 22 -26 22 -18 0 -19 -10 -19 -250z"/>
<path d="M9800 6390 c0 -240 1 -250 19 -250 13 0 23 11 31 35 21 63 29 65 282
65 l228 0 0 -602 c0 -392 -4 -616 -11 -641 -8 -28 -19 -42 -45 -54 -24 -12
-34 -23 -34 -40 l0 -23 260 0 260 0 0 25 c0 17 -9 29 -29 39 -16 9 -34 29 -40
47 -8 22 -11 221 -11 640 l0 609 228 0 c252 0 264 -3 280 -63 6 -22 15 -33 30
-35 l22 -3 0 250 c0 244 -1 251 -20 251 -13 0 -25 -12 -34 -34 -8 -19 -23 -39
-34 -45 -14 -8 -217 -11 -647 -11 -430 0 -633 3 -647 11 -11 6 -26 26 -34 45
-9 22 -21 34 -34 34 -19 0 -20 -7 -20 -250z"/>
<path d="M13130 6389 l0 -250 22 3 c14 2 25 14 33 37 20 60 26 61 277 61 l228
0 0 -614 c0 -367 -4 -625 -10 -640 -5 -14 -23 -32 -40 -41 -21 -11 -30 -23
-30 -40 l0 -25 260 0 260 0 0 24 c0 17 -9 27 -30 36 -17 7 -36 22 -43 34 -9
16 -13 179 -15 644 l-3 622 228 0 c254 0 262 -2 283 -65 8 -24 18 -35 31 -35
18 0 19 10 19 250 0 243 -1 250 -20 250 -13 0 -25 -12 -34 -34 -8 -19 -23 -39
-34 -45 -14 -8 -217 -11 -647 -11 -430 0 -633 3 -647 11 -11 6 -26 26 -34 45
-9 22 -21 34 -34 34 -19 0 -20 -7 -20 -251z"/>
<path d="M24952 6393 c3 -228 4 -248 21 -251 12 -3 22 7 32 32 27 64 34 66
282 66 l223 0 0 -628 c0 -611 -1 -629 -20 -649 -10 -12 -28 -24 -40 -28 -13
-4 -20 -15 -20 -31 l0 -24 260 0 260 0 0 25 c0 17 -9 29 -30 40 -16 8 -34 24
-40 34 -6 13 -10 234 -10 640 l0 621 219 0 c121 0 231 -4 244 -9 15 -6 31 -25
41 -51 12 -29 21 -40 34 -38 15 3 17 25 20 251 l2 247 -24 0 c-17 0 -26 -7
-30 -25 -4 -14 -15 -34 -26 -45 -20 -20 -36 -20 -656 -20 -401 0 -642 4 -654
10 -10 5 -24 26 -30 45 -9 27 -17 35 -36 35 l-24 0 2 -247z"/>
<path d="M6545 6584 c-168 -17 -338 -89 -435 -183 -227 -223 -182 -648 83
-787 79 -41 185 -63 441 -89 329 -34 378 -47 411 -109 22 -41 16 -116 -12
-155 -26 -34 -109 -75 -186 -92 -144 -32 -384 -7 -544 57 -119 48 -161 80
-172 137 -5 21 -13 33 -26 35 -17 2 -30 -24 -93 -198 -40 -110 -70 -204 -67
-210 9 -15 31 -12 45 5 18 22 43 19 108 -14 316 -159 742 -183 1010 -55 387
185 404 722 28 900 -93 44 -213 69 -441 89 -355 32 -415 56 -415 164 0 78 77
143 211 177 94 24 275 15 392 -20 160 -48 257 -109 278 -178 26 -80 39 -66
133 144 81 177 86 193 70 205 -14 11 -21 10 -34 -2 -27 -24 -50 -18 -191 49
-140 66 -226 98 -319 115 -65 12 -219 20 -275 15z"/>
<path d="M15490 6584 c-213 -23 -368 -85 -504 -202 -206 -178 -299 -436 -275
-766 37 -499 451 -828 964 -766 211 25 349 92 496 239 81 82 103 111 143 191
63 128 86 218 93 371 7 149 -6 255 -48 384 -36 115 -86 199 -172 291 -149 160
-338 244 -577 257 -47 3 -101 3 -120 1z m172 -335 c171 -36 309 -168 362 -349
26 -85 31 -231 12 -320 -53 -253 -236 -410 -476 -410 -142 1 -242 40 -336 134
-105 105 -154 237 -154 411 0 57 7 126 15 160 48 189 181 330 350 371 64 16
160 17 227 3z"/>
<path d="M22232 6579 c-364 -44 -628 -272 -714 -617 -31 -124 -32 -369 -1
-493 77 -307 295 -526 601 -601 68 -17 118 -22 227 -22 203 0 343 38 481 130
267 177 400 480 365 831 -32 321 -178 551 -434 684 -140 73 -354 109 -525 88z
m209 -329 c182 -35 329 -181 374 -371 19 -83 19 -258 0 -332 -47 -180 -181
-321 -345 -363 -86 -22 -223 -15 -302 15 -145 56 -256 190 -299 361 -17 70
-18 239 0 310 33 139 130 274 239 333 96 52 216 69 333 47z"/>
<path d="M23950 6580 c-276 -35 -475 -175 -533 -376 -70 -240 19 -496 205
-590 95 -48 141 -57 443 -89 265 -28 322 -38 367 -69 58 -39 74 -104 42 -172
-30 -64 -119 -105 -272 -125 -252 -33 -642 92 -642 206 0 15 -7 26 -21 30 -11
4 -22 5 -24 3 -12 -12 -145 -395 -141 -405 7 -17 31 -16 46 2 18 22 43 19 108
-14 280 -141 654 -178 916 -90 115 38 187 83 259 158 186 194 177 521 -19 701
-96 89 -253 138 -504 160 -396 33 -470 58 -470 157 0 82 47 134 156 175 50 19
80 22 204 22 122 1 157 -3 225 -22 160 -46 295 -131 295 -185 0 -25 17 -47 35
-47 6 0 51 87 98 192 80 177 86 194 71 205 -14 11 -21 10 -34 -2 -26 -24 -54
-18 -153 31 -121 61 -251 111 -334 128 -90 19 -242 26 -323 16z"/>
<path d="M28039 6580 c-114 -13 -193 -36 -299 -87 -81 -39 -107 -59 -185 -137
-182 -184 -265 -411 -252 -686 13 -259 100 -458 271 -617 92 -86 201 -145 334
-180 84 -22 118 -26 252 -26 127 0 171 4 245 22 102 25 233 85 347 160 114 74
135 83 157 71 27 -14 51 -13 57 4 4 11 -179 338 -207 370 -15 17 -39 -16 -39
-52 0 -29 -8 -44 -47 -81 -55 -53 -156 -109 -258 -143 -59 -19 -90 -23 -200
-23 -109 1 -140 4 -195 23 -136 48 -238 139 -301 267 -103 211 -67 459 91 628
179 192 495 221 761 70 111 -64 149 -104 149 -159 0 -38 26 -66 41 -43 5 8 55
90 111 182 89 147 100 170 87 182 -12 12 -20 13 -46 3 -30 -11 -36 -9 -115 42
-97 63 -249 144 -310 166 -113 40 -310 59 -449 44z"/>
<path d="M29930 6584 c-273 -26 -504 -151 -639 -348 -188 -272 -196 -718 -20
-1013 48 -79 171 -201 259 -255 157 -98 367 -141 571 -119 213 23 350 85 498
225 159 152 237 337 248 586 18 429 -189 758 -552 879 -79 26 -259 55 -314 49
-9 0 -32 -3 -51 -4z m172 -335 c191 -40 336 -198 374 -409 67 -366 -149 -670
-475 -670 -145 0 -260 48 -350 146 -97 105 -141 228 -141 396 0 122 13 183 58
278 42 89 131 184 207 220 98 47 219 61 327 39z"/>
<path d="M4017 6543 c-13 -13 -7 -44 11 -50 9 -3 27 -15 40 -26 l22 -20 0
-729 c0 -448 -4 -736 -10 -747 -5 -10 -23 -24 -40 -31 -21 -9 -30 -19 -30 -36
l0 -24 245 0 245 0 0 25 c0 18 -7 28 -24 35 -57 21 -56 14 -54 538 l3 482 290
-327 c452 -509 537 -606 546 -631 11 -28 -3 -58 -31 -67 -13 -4 -20 -15 -20
-31 l0 -24 265 0 265 0 0 23 c0 17 -10 28 -34 40 -26 12 -37 26 -45 54 -15 53
-15 1384 0 1436 8 30 18 42 45 53 27 12 35 20 32 37 -3 22 -4 22 -245 25
l-243 2 0 -24 c0 -17 10 -30 34 -44 25 -15 37 -30 41 -54 3 -18 4 -235 3 -483
l-3 -449 -384 434 c-211 239 -392 449 -403 465 -25 41 -20 77 15 93 20 10 27
20 25 35 -3 22 -4 22 -279 25 -151 1 -278 -1 -282 -5z"/>
<path d="M9140 6525 c0 -17 9 -29 30 -40 17 -9 35 -27 40 -41 6 -15 10 -306
10 -732 0 -761 1 -744 -53 -770 -18 -9 -27 -21 -27 -38 l0 -24 260 0 260 0 0
25 c0 14 -4 25 -9 25 -5 0 -23 12 -40 26 l-31 26 0 732 0 733 23 20 c12 11 30
23 40 26 12 5 17 15 15 29 l-3 23 -257 3 -258 2 0 -25z"/>
<path d="M11380 6526 c0 -17 10 -30 35 -44 19 -12 37 -31 40 -44 2 -13 6 -266
8 -563 4 -592 6 -613 66 -742 76 -162 262 -258 548 -285 137 -12 317 -1 433
28 156 39 289 131 347 241 66 124 66 120 72 748 4 314 10 578 14 587 5 9 24
24 43 33 27 12 34 22 32 38 -3 22 -5 22 -245 25 l-243 2 0 -25 c0 -17 9 -29
29 -39 16 -9 34 -29 40 -47 14 -40 15 -871 1 -979 -19 -143 -86 -230 -208
-267 -88 -28 -298 -25 -373 5 -67 27 -133 81 -158 131 -36 71 -41 141 -41 631
0 517 -1 509 56 530 17 7 24 17 24 35 l0 25 -260 0 -260 0 0 -24z"/>
<path d="M19557 6543 c-16 -16 -5 -40 27 -57 21 -11 39 -31 45 -49 7 -20 11
-264 11 -724 0 -762 1 -748 -59 -772 -22 -10 -31 -20 -31 -37 l0 -24 245 0
245 0 0 24 c0 17 -10 30 -34 44 -25 15 -37 30 -41 54 -3 18 -4 242 -3 497 l3
463 394 -443 c217 -244 407 -462 423 -483 36 -50 36 -73 -2 -94 -19 -11 -30
-25 -30 -39 l0 -23 265 0 265 0 0 24 c0 16 -7 27 -20 31 -11 3 -29 18 -40 32
-20 25 -20 38 -20 747 0 788 -2 754 57 777 18 6 24 15 21 32 l-3 22 -240 0
-240 0 -3 -22 c-3 -17 3 -26 22 -33 57 -21 56 -15 54 -524 l-3 -468 -385 437
c-212 240 -393 451 -403 470 -22 41 -16 68 19 84 18 8 24 18 22 34 l-3 22
-276 3 c-151 1 -278 -1 -282 -5z"/>
<path d="M26570 6525 c0 -17 9 -29 28 -39 15 -8 33 -26 40 -41 15 -33 17
-1420 2 -1459 -5 -14 -23 -32 -40 -41 -21 -11 -30 -23 -30 -40 l0 -25 260 0
260 0 0 23 c0 17 -10 28 -34 40 -26 12 -37 26 -45 54 -15 53 -15 1384 0 1436
8 30 18 42 45 53 27 12 35 20 32 37 -3 22 -3 22 -260 25 l-258 2 0 -25z"/>
<path d="M17180 4435 c0 -9 7 -18 15 -21 21 -8 20 -14 -22 -132 -28 -81 -41
-106 -60 -113 -13 -5 -23 -15 -23 -24 0 -12 18 -15 110 -15 103 0 110 1 110
20 0 11 -4 20 -10 20 -20 0 -9 23 63 125 48 69 81 107 100 114 15 5 27 17 27
25 0 14 -22 16 -155 16 -133 0 -155 -2 -155 -15z"/>
<path d="M14790 4250 c0 -11 12 -26 29 -34 19 -10 30 -26 35 -47 3 -17 6 -312
6 -654 0 -342 -3 -637 -6 -654 -5 -21 -16 -37 -36 -47 -18 -9 -28 -22 -26 -32
3 -15 23 -17 198 -17 177 0 195 2 198 17 2 11 -6 22 -23 30 -14 6 -28 21 -31
32 -2 12 -3 223 -2 469 l3 448 230 -495 c126 -273 234 -495 239 -493 4 1 117
225 250 497 l241 494 3 -450 c1 -247 0 -458 -2 -470 -3 -11 -17 -26 -31 -32
-17 -8 -25 -19 -23 -30 3 -15 23 -17 211 -20 l207 -2 0 25 c0 15 -6 25 -14 25
-8 0 -22 10 -30 22 -14 20 -16 102 -16 689 0 632 1 667 18 682 10 10 24 17 30
17 7 0 12 11 12 25 l0 25 -250 0 -250 0 0 -24 c0 -15 7 -26 20 -29 43 -11 25
-60 -167 -465 -112 -236 -190 -388 -194 -380 -31 56 -351 766 -356 788 -4 23
0 34 21 53 14 13 26 32 26 41 0 14 -26 16 -260 16 -252 0 -260 -1 -260 -20z"/>
<path d="M14060 4055 c0 -8 -9 -24 -20 -35 -19 -19 -33 -20 -520 -20 -470 0
-500 -1 -500 -17 0 -10 14 -26 30 -35 l30 -17 0 -551 0 -551 -30 -17 c-17 -9
-29 -24 -28 -32 3 -13 72 -16 523 -20 286 -3 521 -6 523 -8 2 -1 8 -16 14 -33
7 -19 16 -29 27 -27 14 3 16 26 19 186 2 173 2 182 -17 182 -11 0 -23 -11 -31
-29 -6 -16 -21 -32 -33 -35 -12 -3 -174 -6 -359 -6 l-338 0 0 145 0 145 221 0
220 0 15 -35 c8 -19 21 -35 29 -35 13 0 15 28 15 185 0 159 -2 185 -15 185 -9
0 -20 -12 -26 -27 -6 -15 -16 -31 -22 -35 -7 -4 -108 -8 -224 -8 l-213 0 0
130 0 130 335 0 c322 0 336 -1 355 -20 11 -11 20 -27 20 -35 0 -8 9 -15 20
-15 19 0 20 7 20 185 0 178 -1 185 -20 185 -11 0 -20 -7 -20 -15z"/>
<path d="M17690 4037 l-15 -32 -507 -3 c-485 -2 -508 -3 -508 -20 0 -11 11
-24 25 -30 14 -7 30 -23 35 -38 11 -28 14 -1001 3 -1054 -4 -22 -16 -38 -35
-49 -15 -9 -27 -23 -26 -31 3 -13 72 -16 523 -20 l520 -5 15 -32 c9 -19 21
-32 30 -30 13 2 15 32 18 185 2 173 2 182 -17 182 -11 0 -23 -11 -31 -29 -6
-16 -21 -32 -33 -35 -12 -3 -174 -6 -359 -6 l-338 0 0 145 0 145 220 0 220 0
17 -35 c9 -19 23 -35 30 -35 10 0 13 39 13 185 0 159 -2 185 -15 185 -9 0 -20
-12 -26 -27 -6 -15 -16 -31 -22 -35 -7 -4 -108 -8 -224 -8 l-213 0 0 130 0
130 335 0 c322 0 336 -1 355 -20 11 -11 20 -27 20 -35 0 -8 9 -15 20 -15 19 0
20 7 20 185 0 170 -1 185 -17 185 -10 0 -25 -15 -33 -33z"/>
<path d="M20235 4021 c-273 -45 -459 -226 -511 -498 -44 -230 22 -467 172
-616 116 -117 257 -170 449 -170 178 -1 280 32 454 143 72 46 85 51 106 42 18
-8 26 -8 35 2 8 11 -8 46 -70 150 -68 114 -84 135 -96 125 -8 -6 -14 -24 -14
-39 0 -34 -47 -78 -128 -119 -85 -43 -157 -61 -242 -61 -177 0 -301 76 -374
230 -29 60 -31 73 -31 170 0 97 2 110 31 170 73 154 197 230 373 230 96 -1
148 -13 236 -55 86 -41 135 -87 135 -125 0 -15 6 -33 14 -39 19 -16 182 255
165 275 -8 10 -16 10 -34 2 -21 -10 -34 -5 -102 40 -92 60 -192 108 -265 128
-65 17 -236 26 -303 15z"/>
<path d="M21585 4016 c-250 -49 -426 -209 -485 -442 -25 -96 -27 -278 -4 -374
50 -214 220 -389 434 -446 88 -23 263 -23 350 -1 174 46 314 157 390 309 95
193 94 440 -1 636 -72 148 -216 265 -376 306 -88 23 -225 28 -308 12z m283
-269 c130 -67 202 -199 202 -367 0 -166 -74 -299 -203 -368 -47 -24 -62 -27
-157 -27 -89 0 -112 3 -151 23 -77 38 -125 87 -166 169 -35 70 -38 84 -41 178
-6 158 35 268 131 350 67 58 126 76 237 72 80 -3 103 -8 148 -30z"/>
<path d="M11650 3983 c0 -10 12 -27 28 -39 l27 -22 0 -542 0 -542 -27 -22
c-16 -12 -28 -30 -28 -40 0 -17 21 -17 398 -14 347 4 404 7 452 22 182 60 293
180 346 376 25 93 26 349 0 440 -44 162 -139 287 -260 344 -102 48 -175 55
-573 56 -336 0 -363 -1 -363 -17z m751 -237 c137 -50 211 -205 196 -411 -10
-143 -65 -249 -153 -297 -66 -36 -149 -48 -326 -48 l-148 0 0 391 0 391 193
-4 c147 -4 203 -9 238 -22z"/>
<path d="M17860 3981 c0 -11 8 -22 19 -26 10 -3 35 -22 55 -41 38 -37 359
-510 359 -529 0 -11 -344 -508 -376 -542 -11 -12 -35 -27 -54 -34 -23 -7 -33
-16 -31 -27 3 -15 27 -17 233 -17 196 0 230 2 232 15 2 8 -10 23 -27 32 -33
19 -39 51 -19 91 12 22 164 244 180 261 4 5 51 -57 103 -136 109 -165 118
-196 65 -223 -65 -34 -33 -40 227 -40 224 0 249 2 252 17 2 11 -6 18 -28 23
-17 4 -46 20 -65 36 -18 16 -112 150 -209 298 l-177 269 167 238 c188 270 204
289 251 305 22 7 33 17 33 30 0 18 -10 19 -240 19 -222 0 -240 -1 -240 -17 0
-10 14 -26 30 -35 52 -30 43 -66 -51 -204 -45 -65 -83 -121 -85 -123 -2 -2
-39 52 -84 120 -93 142 -101 178 -50 207 16 9 30 25 30 35 0 16 -19 17 -250
17 -240 0 -250 -1 -250 -19z"/>
<path d="M19170 3984 c0 -9 14 -29 30 -44 l30 -28 0 -532 0 -532 -30 -28 c-16
-15 -30 -35 -30 -44 0 -14 23 -16 190 -16 173 0 190 2 190 17 0 10 -12 27 -27
39 l-28 22 0 542 0 542 28 22 c15 12 27 29 27 39 0 15 -17 17 -190 17 -167 0
-190 -2 -190 -16z"/>
</g>
</svg>
